<svg xmlns="http://www.w3.org/2000/svg" xmlns:xlink="http://www.w3.org/1999/xlink" version="1.1" x="0px" y="0px" viewBox="0 0 48 60" enable-background="new 0 0 48 48" xml:space="preserve"><g><path d="M40.2850342,37.4604492l-6.4862061-6.4862061c1.9657593-2.5733643,3.0438843-5.6947021,3.0443115-8.9884033   c0-3.9692383-1.5458984-7.7011719-4.3530273-10.5078125c-2.8066406-2.8066406-6.5380859-4.3525391-10.5078125-4.3525391   c-3.9692383,0-7.7011719,1.5458984-10.5078125,4.3525391c-5.7939453,5.7944336-5.7939453,15.222168,0,21.015625   c2.8066406,2.8071289,6.5385742,4.3530273,10.5078125,4.3530273c3.2937012-0.0004272,6.4150391-1.0785522,8.9884033-3.0443115   l6.4862061,6.4862061c0.3901367,0.390625,0.9023438,0.5859375,1.4140625,0.5859375s1.0239258-0.1953125,1.4140625-0.5859375   C41.0662842,39.5078125,41.0662842,38.2412109,40.2850342,37.4604492z M14.3026123,29.6655273   c-4.234375-4.234375-4.2338867-11.1245117,0-15.359375c2.0512695-2.0507813,4.7788086-3.1806641,7.6796875-3.1806641   c2.9013672,0,5.628418,1.1298828,7.6796875,3.1806641c2.0512695,2.0512695,3.1811523,4.7788086,3.1811523,7.6796875   c0,2.9013672-1.1298828,5.628418-3.1811523,7.6796875s-4.7783203,3.1811523-7.6796875,3.1811523   C19.0814209,32.8466797,16.3538818,31.7167969,14.3026123,29.6655273z"/></g></svg>