<svg version="1.1" id="svg" xmlns="http://www.w3.org/2000/svg" xmlns:xlink="http://www.w3.org/1999/xlink" x="0px" y="0px" viewBox="0 0 1920 1080" style="" xml:space="preserve">
<style type="text/css">
	
  
  
#svg {
  width: 100%;
  stroke-width: 5;
}
/* Style When Finished */
#svg * {
  fill: #a92637;
  fill-opacity: 0;
  -webkit-transition: fill-opacity 1s;
  transition: fill-opacity 1s;
}
#svg.finished * {
  fill-opacity: 1;
}
  .st0{fill:#A92637;stroke:#A92637;stroke-miterlimit:10;}
</style>
<g>
	
	


<path class="st0 vfTOVvDc_0" fill="none" stroke="#008cff" stroke-linecap="round" stroke-linejoin="round" d="M538.42,669.52c-14.25-1.37-28.48-3-42.76-4-10.08-.68-19.42-3.82-29-6.63a85.73,85.73,0,0,1-23.12-10.7c-9.91-6.53-19.67-13.31-29.18-20.41-9.76-7.28-19.17-15-28.65-22.69a23.2,23.2,0,0,1-4.21-4.83C372,586.65,368.18,572,373.3,555.61c1-3.21,1.36-6.63,2.08-9.93a68.57,68.57,0,0,1,7.44-18.7c5.19-9.45,12.34-17.1,19.3-25.12,8.09-9.32,18.4-15.47,28.19-22.5C442,471,454.72,464.84,467.74,459c9.85-4.46,20.13-7,30.49-9.7,10.14-2.62,20.34-2.47,30.63-2.53,11.1-.07,22.21-.81,33.31-.67,7.28.09,14.55,1.15,21.8,1.92,8.92.95,17.82,2,26.71,3.15a42.1,42.1,0,0,1,8.34,2c3.38,1.18,5,3.94,5.26,7.43a7.72,7.72,0,0,1-4.45,7.9,21.1,21.1,0,0,1-13.6,2.07c-12.82-2.52-25.77-2.12-38.73-1.35-12.5.74-25.08.79-37.49,2.24a203.76,203.76,0,0,0-32.39,6.42,182.71,182.71,0,0,0-29.87,11.53c-12.26,6-24.55,12.27-34.92,21.44-5.79,5.11-11.71,10.14-17,15.76-7.61,8.12-13.48,17.29-12.78,29.14.33,5.65.49,11.38,1.6,16.9,1.75,8.72,6.27,15.74,14.35,20.28,7.2,4,13.92,9,21.29,12.66,9.75,4.84,19.78,9.21,30,13.06a237.4,237.4,0,0,0,26.91,8.24c9.85,2.44,19.84,4.41,29.87,5.92a262.86,262.86,0,0,0,27.44,2.62c9.92.44,19.9.5,29.82,0,10.36-.54,20.69-1.79,31-3.08,10.79-1.35,21.53-3.14,32.3-4.69,6.12-.88,12.09,5.92,10.62,12.43a17.34,17.34,0,0,1-11,13.15A119.37,119.37,0,0,1,618.56,661c-11,1.59-22,2.87-33.08,4.12-11.55,1.31-23.11,2.54-34.69,3.58-4,.36-8.16.06-12.25.06A3.48,3.48,0,0,0,538.42,669.52Z" transform="translate(-370.51 -442.36)"></path>
  
  
  <path class="st0 vfTOVvDc_1" fill="none" stroke="#008cff" stroke-linecap="round" stroke-linejoin="round" d="M791,443.29a45.2,45.2,0,0,1,5.67-.42c3.44.15,6.64,1.2,8.64,4.23,3.72,5.62,5.77,11.49,3.6,18.44s-4.38,13.82-9,19.64A25.47,25.47,0,0,1,786.77,494c-2.38.67-5.56-.27-8-1.34-4.81-2.1-7.65-6.16-8.79-11.25-1.52-6.78-1.05-13.4,2.36-19.59,3.06-5.53,6.21-11,9.4-16.47C783,443.25,785.72,442.65,791,443.29Z" transform="translate(-370.51 -442.36)"></path>

<path class="st0 vfTOVvDc_2" fill="none" stroke="#008cff" stroke-linecap="round" stroke-linejoin="round" d="M877.81,639.48c.09-.43.07-.38.13-.64,0,0,0-.19-.08-.38a1.67,1.67,0,0,1-.54-.12s.47-.23.43-.27c-.25-.1-.2-.27-.44-.41s-.58-.16-.87-.38c-5,.21-14.67-2.14-18.73-.91-7.75,2.34-15.18,2.42-22.22-1.86-5.22-3.18-8.15-7.81-7.66-14.18s1-12.52,1.47-18.77c1.07-12.92-1.29-25.4-4.85-37.71a19.33,19.33,0,0,0-10.18-12.31,98.79,98.79,0,0,0-10.4-4c-4.51-1.64-4.55-2.43-4.63-7.53-.06-3.78-.79-5.44-4.61-6.09a63.11,63.11,0,0,0-10.74-.77c-9.72,0-19.44.09-29.15.49-13.61.55-26.46,4.85-39.41,8.54-9.56,2.73-17,8.57-23.78,15.72-7,7.35-13.86,14.48-17.09,24.49-3.06,9.48-5.57,18.72-2.88,28.84,4.56,17.14,12.89,31.23,29.48,39.16a69.68,69.68,0,0,0,9.76,3.8c8.75,2.67,17.49,5.41,26.36,7.62,9.6,2.39,19.41,2.61,29.32,2.15a63.62,63.62,0,0,0,28.09-8.26c3.88-2.13,5.93-2.07,9.28.63a98.51,98.51,0,0,1,8.32,7c6.46,6.55,14.36,7.6,22.85,6.22,11.06-1.8,19.57-8.31,27.55-15.6,5.28-4.83,10.42-9.81,15.11-14.23C877.86,639.85,877.65,639.4,877.81,639.48ZM790,621.15c-1,4.07-4.2,5.7-7.55,6.73-8.16,2.5-16.32,5.27-23.22,4.87-17.68-.38-32.76-3.76-46.77-11.34-6.24-3.38-10-11.91-8.15-19.39,1-4.26,2.76-8.34,3.92-12.57,2.6-9.46,7.94-17.36,14.59-24.21a48.91,48.91,0,0,1,13.47-9.55,120.26,120.26,0,0,1,19.26-7c2.47-.72,5.42,0,8.11.4.46.06,1.23,2,.92,2.66-3.18,7-2.55,10.25,4.17,13.7a62.85,62.85,0,0,1,20.84,17.71,9.93,9.93,0,0,1,2,4.24A81.35,81.35,0,0,1,790,621.15Z" transform="translate(-370.51 -442.36)"></path>
  
  <path class="st0 vfTOVvDc_3" fill="none" stroke="#008cff" stroke-linecap="round" stroke-linejoin="round" d="M1005.32,626.74a6.87,6.87,0,0,0-3.48-2.14,61.55,61.55,0,0,0-12.1-.75c-7.45.55-14.83,2-22.28,2.49A279.77,279.77,0,0,1,939,627,224.4,224.4,0,0,1,910.61,624c-15.11-2.55-25.67-10.89-30.71-25.84a26.43,26.43,0,0,1,1.55-20.88c7-13.8,17.91-23.59,33.11-28a132.74,132.74,0,0,0,14.86-4.81,92.88,92.88,0,0,0,12.87-7.11c1.87-1.18,3.17-3.43,1.28-5.49a20.08,20.08,0,0,0-13.25-6.62c-11.76-1-22.83,1.14-33.2,7.36-9.13,5.48-18,11-25.24,19-8.51,9.51-15.08,19.89-17.88,32.46-2.09,9.35-2.08,18.53,2.5,27.19,2.12,4,4.44,7.91,6.78,11.84a23.51,23.51,0,0,1,2.86,4.8l.73.93a5.27,5.27,0,0,1,.9,1l.2.28c.32.37.63.75,1,1.1a22.7,22.7,0,0,0,2,1.89l.39.28c.47.3.94.6,1.43.89l.16.1c7.18,3.75,13.9,7.65,21,10.81a91.65,91.65,0,0,0,15.72,5,99,99,0,0,0,28.89,2.53c11.66-.61,23.25-1,34.78-3,7-1.24,14.15-1.67,18.12-9.06a16.68,16.68,0,0,1,12.45-9.12C1006.89,631.11,1007.47,628.87,1005.32,626.74Z" transform="translate(-370.51 -442.36)"></path>
  
  <path class="st0 vfTOVvDc_4" fill="none" stroke="#008cff" stroke-linecap="round" stroke-linejoin="round" d="M1137,633.93c-6.89-4-13.75-6.81-22.22-5-9.36,2-18.73-.75-27.91-2.44-12.07-2.22-24-5.27-35.92-8.25-8.17-2-14-7.33-14.84-15.73-.58-5.59,1.34-11.41,2-17.15.39-3.62,2.42-5.37,5.82-5.74,8.92-.95,17.84-2.06,26.79-2.69,12.39-.87,24.8-1.38,37.21-2,5.67-.27,10.32-2.61,13.18-7.43a57.69,57.69,0,0,0,5.26-11.89c2.17-6.79,0-18.84-8.18-24a138.47,138.47,0,0,1-17.28-13.26c-4.64-4.09-9.69-6.89-15.81-7-3.33-.06-6.67,1.06-10,1.63-12.94,2.21-25.06,6.36-35.4,14.78-3,2.44-6.18,4.69-8.92,7.39a114.69,114.69,0,0,0-21.89,31.1,28.89,28.89,0,0,0-3.29,12.78c.21,10.24.59,20.65,5.53,30.06,5.49,10.47,10.18,21.61,21.76,27.28,8,3.95,16,7.8,24.73,10.46a138.37,138.37,0,0,0,45.25,5.55q12,0,24,0c1.82,0,3.65-.1,5.48-.13a4.65,4.65,0,0,0,4.84-3.44c.86-2.65,1.92-5.24,2.75-7.9C1141.11,637.17,1140.53,636,1137,633.93Zm-89.71-80c7.14-5.42,14.25-10.9,21.63-16,3.33-2.29,8.92-1.09,11.73,2,.45.5.33,2.44-.13,2.72-10.32,6.2-20.27,13.13-31.78,17.12-2.36.82-3.56-.23-3.25-3.21A8.76,8.76,0,0,1,1047.27,553.88Z" transform="translate(-370.51 -442.36)"></path>
  
  <path class="st0 vfTOVvDc_5" fill="none" stroke="#008cff" stroke-linecap="round" stroke-linejoin="round" d="M1192.38,527.09c5.73-2.11,10-4.71,11.81-10.56.44-1.45,3.06-2.56,4.9-3.2,4.25-1.49,8.7-2.38,12.93-3.89a85,85,0,0,1,28.21-5.36c4.31,0,8.89,0,12.88,1.31,8.4,2.86,11.51,15.64,5.84,22.53-.63.76-2.29,1.05-3.43,1-11-.86-22-1.94-33-2.75-8.45-.63-16.66-.13-23.79,5.48-1.69,1.33-4.1,1.76-6.22,2.49-5.93,2-7.5,5.61-6.53,11.89,1.13,7.3,1.39,14.74,2.09,22.12,1.11,11.72,2.4,23.42,3.35,35.15.81,10,1.51,20,1.73,30,.1,4.5-1,9-1.74,13.53a3.84,3.84,0,0,1-1.72,2.41,16.5,16.5,0,0,1-19.16-2.3,38.77,38.77,0,0,1-9.6-15c-3.63-9.48-2.68-19.43-3.63-29.17-1-10.64-1.59-21.33-2.07-32-.4-9-.63-17.94-.51-26.91.11-8,.64-16,1.28-24,.49-6.1,3.08-8.33,9-8.58a15.2,15.2,0,0,1,14.73,9.82C1190.59,523.13,1191.53,525.11,1192.38,527.09Z" transform="translate(-370.51 -442.36)"></path>

<path class="st0 vfTOVvDc_6" fill="none" stroke="#008cff" stroke-linecap="round" stroke-linejoin="round" d="M1413.12,616.24a6.24,6.24,0,0,0-1.93,0c-8.93,1.75-18.4,2.21-26.64,5.63-11.8,4.89-23.1,5-35,1.74-6.81-1.89-13.58-4-20.51-5.37-4.81-.92-9.64-1.38-13.93-4-5.14-3.11-8.19-7.56-8.32-13.65a29.41,29.41,0,0,1,.84-8.17c.6-2.18,1.66-5.23,3.33-5.93,4.49-1.88,9.45-3.29,14.19-.35a12.13,12.13,0,0,0,7.09,2c12.18-.27,24.38-.12,35.08-.12,7.7,1,13.79.28,19.46-2.23,3.86-1.7,8.07-3.55,10.84-6.53a96,96,0,0,0,11.64-16.11,19.52,19.52,0,0,0,2.73-10c-.12-4.74-1.45-9.47-2.5-14.15a26.08,26.08,0,0,0-9.49-14.8c-6.68-5.46-14.43-8.77-22.22-12.07a29.6,29.6,0,0,0-15.6-2.24,136.56,136.56,0,0,0-31.84,8.51,37.35,37.35,0,0,0-15.16,10.61c-2.87,3.39-5.23,7.21-8.15,10.55-9.64,11.05-17.3,23.39-24,36.35a52.79,52.79,0,0,0-5.77,16.2c-1,6.54-.85,12.85,1.88,18.92,3.77,8.37,9.8,14.89,17,20.45,8.34,6.43,16.64,12.32,27.8,13.51,9.69,1,19.21,3,28.94.68,8.32-2,16.67-3.92,25-6,2-.51,3.9-1.92,5.94-2.17,10-1.24,18.76-5.87,27.38-10.63a17.8,17.8,0,0,0,5.53-5.5A5.32,5.32,0,0,0,1417,617C1416.69,616.31,1414.48,616.42,1413.12,616.24ZM1337,557.12c4.36-5.21,10.17-7.73,16.87-8.27,3.31-.26,6.63-.49,9.95-.6,2.58-.09,4.57.69,5.1,3.68.71,4,.23,5.4-2.94,6.73-10.14,4.27-20.88,4.83-31.59,5.47l-.85-1.17A41.37,41.37,0,0,1,1337,557.12Z" transform="translate(-370.51 -442.36)"></path>
 
   
<path class="st0 vfTOVvDc_7" fill="none" stroke="#008cff" stroke-linecap="round" stroke-linejoin="round" d="M1476.91,643.33c-11.26,1.24-22.43.43-33.59-1.16-3.26-.46-5.75-1.89-6.71-5.08a68.56,68.56,0,0,1-3-12.1c-.58-5.26,2-9.45,6.14-12.68,5.9-4.61,12.59-4.4,19.57-3.56,12.94,1.56,25.9,3.07,38.89,4a106.1,106.1,0,0,0,20.15-.68c3.09-.37,6.07-2.44,8.86-4.14,2.29-1.4,1.9-3.65.6-5.66s-2.66-3.85-4-5.77c-4.2-6-9.88-9.19-17.07-10.86-6.74-1.57-13.11-4.69-19.68-7-6.13-2.16-12.38-4-18.47-6.26A27,27,0,0,1,1455.81,562c-7.61-10.92-7.22-17.87,1.07-28.51,8.06-10.35,19.59-14,31.48-17,1.77-.45,3.75-.07,5.61-.22,3.69-.29,7.52-.17,11-1.16,5.43-1.53,10.54-4.19,16-5.72,5.24-1.48,10.47-.26,15.28,2.19a45.76,45.76,0,0,1,6.44,4.18c1.81,1.36,1.8,4.32-.25,6.62a56.27,56.27,0,0,1-7,6.62,58.86,58.86,0,0,1-29.71,12.72c-3.32.41-7.28-.83-10.33-2.46-4.74-2.53-9-2-13.41.15-2.16,1-2.31,2.28-.16,3.33,9.89,4.83,19.53,10.5,29.89,14a63.28,63.28,0,0,1,24.92,15.36c7,6.82,9,15,10.83,23.64.76,3.54,1.77,7,2.22,10.62,1.22,9.65-.46,18.46-11.54,22.72-12.12,4.65-24.32,8.88-37.13,11.14-8,1.4-16,2.75-23.93,4.12C1477,644,1477,643.66,1476.91,643.33Z" transform="translate(-370.51 -442.36)"></path>


</g>
<style data-made-with="vivus-instant">.vfTOVvDc_0{stroke-dasharray:1219 1221;stroke-dashoffset:1220;animation:vfTOVvDc_draw_0 4600ms linear 0ms infinite,vfTOVvDc_fade 4600ms linear 0ms infinite;}.vfTOVvDc_1{stroke-dasharray:146 148;stroke-dashoffset:147;animation:vfTOVvDc_draw_1 4600ms linear 0ms infinite,vfTOVvDc_fade 4600ms linear 0ms infinite;}.vfTOVvDc_2{stroke-dasharray:861 863;stroke-dashoffset:862;animation:vfTOVvDc_draw_2 4600ms linear 0ms infinite,vfTOVvDc_fade 4600ms linear 0ms infinite;}.vfTOVvDc_3{stroke-dasharray:566 568;stroke-dashoffset:567;animation:vfTOVvDc_draw_3 4600ms linear 0ms infinite,vfTOVvDc_fade 4600ms linear 0ms infinite;}.vfTOVvDc_4{stroke-dasharray:690 692;stroke-dashoffset:691;animation:vfTOVvDc_draw_4 4600ms linear 0ms infinite,vfTOVvDc_fade 4600ms linear 0ms infinite;}.vfTOVvDc_5{stroke-dasharray:484 486;stroke-dashoffset:485;animation:vfTOVvDc_draw_5 4600ms linear 0ms infinite,vfTOVvDc_fade 4600ms linear 0ms infinite;}.vfTOVvDc_6{stroke-dasharray:723 725;stroke-dashoffset:724;animation:vfTOVvDc_draw_6 4600ms linear 0ms infinite,vfTOVvDc_fade 4600ms linear 0ms infinite;}.vfTOVvDc_7{stroke-dasharray:648 650;stroke-dashoffset:649;animation:vfTOVvDc_draw_7 4600ms linear 0ms infinite,vfTOVvDc_fade 4600ms linear 0ms infinite;}@keyframes vfTOVvDc_draw{100%{stroke-dashoffset:0;}}@keyframes vfTOVvDc_fade{0%{stroke-opacity:1;}91.30434782608695%{stroke-opacity:1;}100%{stroke-opacity:0;}}@keyframes vfTOVvDc_draw_0{4.3478260869565215%{stroke-dashoffset: 1220}19.23374140806117%{ stroke-dashoffset: 0;}100%{ stroke-dashoffset: 0;}}@keyframes vfTOVvDc_draw_1{19.23374140806117%{stroke-dashoffset: 147}21.027372188554928%{ stroke-dashoffset: 0;}100%{ stroke-dashoffset: 0;}}@keyframes vfTOVvDc_draw_2{21.027372188554928%{stroke-dashoffset: 862}31.545125472810838%{ stroke-dashoffset: 0;}100%{ stroke-dashoffset: 0;}}@keyframes vfTOVvDc_draw_3{31.545125472810838%{stroke-dashoffset: 567}38.4634156261439%{ stroke-dashoffset: 0;}100%{ stroke-dashoffset: 0;}}@keyframes vfTOVvDc_draw_4{38.4634156261439%{stroke-dashoffset: 691}46.89470045145809%{ stroke-dashoffset: 0;}100%{ stroke-dashoffset: 0;}}@keyframes vfTOVvDc_draw_5{46.89470045145809%{stroke-dashoffset: 485}52.812461870093955%{ stroke-dashoffset: 0;}100%{ stroke-dashoffset: 0;}}@keyframes vfTOVvDc_draw_6{52.812461870093955%{stroke-dashoffset: 724}61.64639850327409%{ stroke-dashoffset: 0;}100%{ stroke-dashoffset: 0;}}@keyframes vfTOVvDc_draw_7{61.64639850327409%{stroke-dashoffset: 649}69.56521739130436%{ stroke-dashoffset: 0;}100%{ stroke-dashoffset: 0;}}</style></svg>